<?xml version="1.0" standalone="no"?>
<!DOCTYPE svg PUBLIC "-//W3C//DTD SVG 20010904//EN"
 "http://www.w3.org/TR/2001/REC-SVG-20010904/DTD/svg10.dtd">
<svg version="1.0" xmlns="http://www.w3.org/2000/svg"
 width="826.000000pt" height="661.000000pt" viewBox="0 0 826.000000 661.000000"
 preserveAspectRatio="xMidYMid meet">

<g transform="translate(0.000000,661.000000) scale(0.100000,-0.100000)"
fill="#000000" stroke="none">
<path d="M3425 6235 c-108 -30 -213 -93 -299 -179 -158 -158 -235 -244 -259
-292 -84 -166 -75 -344 23 -446 39 -40 53 -48 109 -59 l64 -12 -39 -31 c-67
-53 -184 -169 -230 -228 -25 -32 -100 -113 -168 -180 -165 -165 -263 -314
-347 -525 -54 -137 -73 -233 -73 -383 -1 -150 18 -237 75 -336 52 -92 154
-170 247 -190 15 -3 -2 9 -37 28 -246 126 -329 412 -226 775 33 114 148 344
227 455 69 95 194 238 208 238 5 0 -6 -27 -26 -60 -96 -165 -170 -374 -209
-595 -21 -118 -21 -352 -1 -467 19 -105 73 -260 114 -327 28 -45 30 -53 20
-88 -32 -115 43 -337 131 -389 l28 -17 -19 -71 c-57 -216 -20 -436 100 -595
45 -59 71 -80 105 -86 17 -4 6 12 -44 64 -57 57 -70 78 -88 134 -40 132 -37
267 12 427 l23 74 56 3 57 2 15 -53 c19 -66 84 -164 139 -212 133 -114 375
-203 599 -220 l88 -7 0 -40 c0 -36 -2 -39 -22 -34 -231 58 -378 4 -480 -178
-66 -116 -187 -435 -188 -491 0 -18 11 -25 60 -40 58 -17 60 -19 60 -52 0
-127 73 -455 139 -623 31 -80 38 -106 30 -127 -29 -89 -50 -314 -30 -327 11
-6 12 2 36 175 9 63 18 117 21 119 5 6 5 7 49 -74 21 -38 54 -95 74 -125 20
-30 47 -77 60 -103 14 -27 38 -63 53 -79 l28 -31 83 8 c45 4 94 9 108 10 14 1
31 5 37 9 28 17 1 121 -48 183 -11 14 -20 35 -20 46 0 21 2 21 81 -9 44 -17
48 -17 73 -1 44 30 31 64 -39 100 -96 48 -195 179 -269 357 -57 135 -83 233
-100 372 l-12 103 39 60 c22 33 51 72 65 87 25 27 26 32 33 236 11 315 19 372
50 372 21 0 21 -3 15 -107 -16 -301 -18 -441 -5 -448 6 -5 98 -10 203 -13 188
-4 298 5 321 29 19 19 4 388 -21 511 -5 23 -2 28 14 28 14 0 21 -9 26 -32 10
-54 36 -347 36 -403 0 -99 11 -146 36 -155 12 -5 28 -18 33 -29 6 -11 40 -44
76 -75 l64 -54 4 -309 4 -308 62 -230 c65 -244 78 -285 92 -285 17 0 9 59 -25
192 -19 73 -37 140 -40 148 -5 12 4 19 36 27 25 7 47 8 52 3 5 -5 11 -63 14
-130 3 -81 8 -120 16 -117 28 9 25 193 -4 247 -8 16 -2 23 40 49 28 17 50 36
50 43 0 7 -20 35 -44 62 l-43 50 24 34 c29 43 30 105 4 149 -22 34 -91 80
-131 85 -43 5 -35 -15 16 -43 133 -74 127 -145 -22 -260 -44 -33 -57 -40 -64
-29 -5 8 -7 17 -5 20 2 4 6 19 9 34 3 16 6 29 8 30 47 26 120 80 128 95 12 23
1 34 -20 20 -8 -5 -18 -9 -22 -9 -3 0 -27 42 -52 93 -44 89 -46 96 -54 212 -5
89 -3 134 7 175 7 30 15 57 17 59 2 2 29 -19 59 -48 52 -47 85 -64 85 -42 0 5
-8 15 -19 22 -10 8 -42 34 -72 58 -48 38 -53 47 -50 77 2 25 -2 34 -12 34 -16
0 -22 -18 -33 -98 -4 -29 -11 -51 -16 -50 -5 2 -44 34 -87 72 l-78 69 -12 176
c-7 97 -19 218 -27 270 -8 52 -14 96 -14 98 0 9 103 1 153 -12 87 -23 153 -60
252 -143 50 -42 126 -102 170 -135 44 -32 84 -63 89 -67 5 -5 -14 -33 -44 -67
-66 -71 -167 -207 -188 -250 -18 -38 -9 -55 15 -30 15 15 19 14 52 -12 49 -38
127 -84 184 -109 233 -103 423 7 534 307 26 71 27 72 57 67 130 -23 174 -16
161 24 -4 13 1 19 19 24 33 8 43 42 20 67 -9 10 -23 19 -31 19 -7 0 -13 5 -13
10 0 6 4 10 9 10 16 0 22 33 9 46 -7 7 -58 20 -113 29 -122 21 -149 34 -161
77 -8 26 -15 33 -34 33 -22 0 -28 -9 -50 -70 -20 -57 -44 -93 -125 -190 -54
-66 -100 -122 -101 -124 -2 -1 -41 20 -88 49 -82 49 -103 70 -71 70 39 0 1 38
-156 156 -347 261 -334 254 -515 254 -125 0 -164 11 -164 45 0 20 7 23 110 34
254 27 441 102 564 225 41 40 85 96 101 127 29 56 29 57 83 63 29 3 75 17 101
31 l48 24 14 -77 c15 -84 19 -309 6 -356 -7 -25 -6 -28 6 -18 8 7 17 9 20 5 4
-3 19 21 34 53 26 54 28 69 28 174 -1 81 -6 132 -19 173 -9 31 -21 55 -24 53
-4 -2 -7 7 -7 21 0 15 14 40 33 60 68 73 121 221 107 302 -6 34 -1 45 40 104
63 91 122 219 152 335 20 79 26 129 30 264 3 94 9 165 14 162 5 -3 3 10 -5 28
-8 18 -21 76 -31 128 -34 197 -126 416 -245 583 -79 110 -248 273 -367 355
-234 159 -525 264 -826 297 -49 6 -57 9 -52 23 29 73 20 226 -20 324 -71 175
-241 326 -421 372 -74 19 -200 19 -269 1z m285 -55 c233 -67 414 -320 397
-550 -3 -42 -9 -82 -12 -90 -4 -12 -32 -15 -128 -17 -155 -3 -309 -25 -436
-63 -55 -17 -102 -30 -103 -30 -2 0 -4 19 -6 41 -6 93 -79 195 -161 226 -51
19 -46 -4 9 -38 56 -34 54 -32 39 -57 -15 -24 -4 -119 20 -165 l18 -36 -104
-52 -105 -52 -48 48 c-27 27 -64 76 -81 109 -44 82 -52 199 -21 303 56 182
236 361 426 423 97 31 186 31 296 0z m-748 -351 c-82 -192 -36 -426 103 -521
19 -12 35 -26 35 -30 0 -11 -79 -10 -120 2 -43 12 -94 59 -121 111 -64 126
-36 295 73 436 22 30 43 52 45 50 2 -2 -5 -24 -15 -48z m407 -276 c26 -57 33
-138 12 -138 -8 0 -20 17 -27 38 -16 46 -27 147 -15 147 4 0 18 -21 30 -47z
m801 -77 c226 -13 523 -107 733 -233 348 -209 570 -502 667 -880 88 -341 47
-700 -111 -966 l-40 -68 -43 44 c-23 25 -60 50 -81 57 -36 12 -110 9 -147 -5
-26 -10 -23 15 8 56 80 107 135 261 149 416 12 141 -34 360 -111 522 -43 92
-146 254 -200 316 -33 38 -22 19 42 -75 28 -41 63 -99 78 -127 14 -29 31 -53
37 -53 5 0 7 -4 4 -10 -3 -5 -1 -10 5 -10 6 0 9 -4 5 -9 -7 -12 25 -81 37 -81
5 0 7 -4 4 -9 -3 -5 5 -39 18 -77 37 -110 51 -200 51 -329 0 -140 -24 -244
-83 -365 -34 -71 -36 -73 -42 -45 -3 17 0 66 7 110 22 144 16 313 -17 470 -19
89 -21 58 -4 -46 25 -149 14 -379 -25 -534 -16 -66 -33 -129 -37 -139 -6 -15
-4 -17 6 -11 10 6 12 1 6 -25 -3 -18 -9 -71 -13 -117 -7 -100 8 -113 26 -20
22 112 23 112 90 -104 35 -112 75 -240 90 -284 21 -67 25 -101 26 -207 2 -102
-1 -125 -12 -121 -9 4 -13 29 -13 93 0 128 -24 237 -88 392 -30 76 -57 136
-59 134 -3 -2 47 -152 72 -217 4 -12 -6 -21 -42 -37 -26 -11 -66 -24 -87 -28
l-39 -7 8 29 c22 87 31 204 15 204 -5 0 -10 -8 -10 -18 0 -45 -43 -184 -82
-262 -57 -117 -135 -194 -260 -254 -110 -53 -197 -78 -373 -106 -71 -12 -133
-24 -138 -27 -4 -3 -7 -39 -6 -81 l2 -76 -41 -18 c-96 -42 -207 -41 -293 2
l-37 19 9 48 c18 96 18 96 -149 126 -277 50 -432 117 -558 242 -99 98 -124
154 -132 288 -4 83 -13 106 -26 71 -3 -9 -6 -37 -6 -64 0 -52 -8 -60 -61 -60
-19 0 -29 5 -29 15 0 30 95 232 108 228 8 -3 12 9 12 44 0 77 -41 467 -51 477
-5 6 -12 0 -17 -14 -26 -70 -41 329 -16 420 4 14 4 22 0 19 -14 -13 -36 -166
-36 -258 0 -97 21 -209 42 -222 6 -4 13 -30 16 -58 l5 -51 -39 16 c-80 33
-198 -8 -251 -87 -14 -21 -28 -39 -30 -39 -11 0 -78 163 -101 249 -24 88 -26
112 -26 301 -1 237 11 320 74 515 113 346 311 618 567 778 247 155 621 256
893 242 36 -2 103 -6 150 -9z m-1258 -1997 c21 -9 27 -20 31 -61 7 -59 -11
-113 -85 -255 -27 -53 -47 -102 -44 -110 3 -8 2 -12 -3 -8 -5 3 -15 -12 -21
-32 -19 -59 -28 -62 -61 -23 -58 67 -92 155 -97 247 -4 74 -2 88 23 138 27 57
73 100 122 115 33 11 100 5 135 -11z m2398 -107 c14 -10 35 -34 48 -52 44 -65
22 -218 -46 -314 -15 -22 -31 -40 -36 -40 -9 -1 -12 5 -89 224 -30 85 -58 163
-62 172 -16 39 135 47 185 10z m-2350 -138 c0 -45 -8 -71 -46 -145 -25 -50
-43 -98 -40 -106 3 -8 2 -12 -3 -9 -11 7 -54 -111 -45 -126 4 -6 3 -8 -3 -5
-14 9 -54 -161 -62 -268 -6 -75 -8 -84 -15 -55 -8 37 -14 261 -7 254 2 -2 15
36 27 85 13 49 41 129 63 178 100 226 116 260 124 256 4 -2 7 -29 7 -59z m755
-966 c-12 -73 -25 -233 -31 -393 l-7 -170 -47 -53 -47 -52 -11 63 c-6 34 -16
99 -23 145 -6 45 -15 82 -20 82 -16 0 -8 -125 16 -268 l6 -34 -98 7 c-113 7
-305 34 -315 43 -7 7 101 279 169 424 58 123 135 202 223 229 14 4 62 8 108 8
l83 1 -6 -32z m554 -228 c6 -107 13 -211 15 -231 l4 -37 -75 -11 c-78 -12
-236 -13 -342 -2 l-64 6 2 180 c1 99 3 181 4 182 2 1 26 -9 53 -23 94 -46 234
-49 306 -7 55 32 44 44 -19 21 -80 -29 -187 -29 -273 0 l-66 22 4 39 4 39 46
-21 c56 -25 179 -34 239 -18 22 6 63 26 90 44 30 20 51 29 55 22 3 -5 11 -98
17 -205z m1235 76 c18 -44 51 -60 156 -80 46 -9 85 -18 88 -20 7 -7 -38 -17
-48 -11 -6 3 -10 -4 -10 -17 0 -13 -3 -39 -6 -58 -5 -32 -3 -36 28 -50 l33
-15 -32 -3 c-18 -2 -61 4 -95 13 -38 9 -65 12 -71 6 -12 -12 0 -31 19 -31 20
0 19 -2 -31 -99 -92 -178 -196 -269 -319 -278 -83 -7 -143 11 -261 81 -49 30
-98 58 -108 63 -15 8 -13 15 25 69 24 33 64 88 91 121 l47 62 98 -64 c53 -36
102 -65 108 -65 18 0 202 234 218 277 27 74 50 133 53 133 2 0 9 -15 17 -34z
m261 -170 c51 -22 45 -39 -10 -32 -25 3 -45 8 -45 11 0 3 0 12 0 20 0 19 11
19 55 1z m-2337 -383 l122 -6 0 -41 c0 -116 57 -350 115 -473 85 -182 170
-294 272 -359 64 -42 71 -52 40 -60 -16 -3 -40 2 -67 16 -45 23 -84 21 -93 -4
-3 -8 4 -32 15 -53 59 -109 68 -128 68 -149 0 -44 -22 -37 -85 30 -34 36 -65
66 -69 66 -18 0 -1 -35 34 -74 22 -24 40 -46 40 -50 0 -8 -58 21 -89 45 -28
23 -41 24 -41 5 0 -8 15 -26 33 -40 l32 -26 -26 0 c-35 0 -57 27 -134 165
-191 341 -267 549 -315 860 -26 168 -26 169 3 161 12 -4 77 -10 145 -13z
m1221 -425 l33 -52 -27 -23 c-14 -13 -30 -23 -36 -23 -5 0 -9 34 -9 75 0 41 2
75 4 75 1 0 18 -23 35 -52z m169 -263 c-2 -2 -39 -22 -83 -43 l-80 -40 -13 36
c-7 20 -11 39 -10 43 2 4 32 27 68 51 l65 45 28 -45 c16 -24 27 -46 25 -47z"/>
<path d="M3729 5119 c-13 -26 -39 -116 -39 -139 0 -13 1 -13 11 0 7 11 9 -9 5
-70 -5 -71 -2 -60 18 70 13 85 23 157 21 158 -2 2 -9 -7 -16 -19z"/>
<path d="M4318 5096 c15 -24 41 -74 56 -110 16 -37 31 -65 34 -62 2 3 1 13 -3
23 -5 10 -9 21 -9 24 -2 15 -92 169 -98 169 -4 0 5 -20 20 -44z"/>
<path d="M3363 5048 c-24 -29 -54 -101 -49 -114 3 -8 2 -13 -3 -10 -10 7 -44
-78 -45 -115 -1 -15 -4 -25 -8 -23 -4 3 -5 -10 -3 -28 4 -24 3 -28 -3 -13 -8
17 -9 16 -16 -10 -4 -17 -9 -39 -12 -50 -4 -16 -3 -17 5 -5 9 13 11 12 12 -5
0 -11 10 12 21 50 11 39 43 128 70 199 46 121 54 153 31 124z"/>
<path d="M3661 4854 c-7 -30 -11 -57 -8 -60 2 -2 9 21 16 52 7 30 11 57 8 60
-2 2 -9 -21 -16 -52z"/>
<path d="M4427 4883 c-8 -13 9 -48 16 -36 4 7 3 14 -3 18 -6 4 -8 11 -5 16 4
5 4 9 1 9 -3 0 -7 -3 -9 -7z"/>
<path d="M4447 4833 c-4 -3 -7 -11 -7 -17 0 -6 5 -5 12 2 6 6 9 14 7 17 -3 3
-9 2 -12 -2z"/>
<path d="M4455 4800 c-3 -5 -2 -18 4 -27 7 -14 9 -12 8 10 -2 30 -3 31 -12 17z"/>
<path d="M3641 4770 c0 -8 4 -22 9 -30 12 -18 12 -2 0 25 -6 13 -9 15 -9 5z"/>
<path d="M3693 4725 c0 -22 2 -30 4 -17 2 12 2 30 0 40 -3 9 -5 -1 -4 -23z"/>
<path d="M4500 4730 c6 -11 13 -20 16 -20 2 0 0 9 -6 20 -6 11 -13 20 -16 20
-2 0 0 -9 6 -20z"/>
<path d="M3631 4714 c0 -11 3 -14 6 -6 3 7 2 16 -1 19 -3 4 -6 -2 -5 -13z"/>
<path d="M4537 4665 c9 -19 18 -33 21 -31 4 5 -26 66 -33 66 -3 0 3 -16 12
-35z"/>
<path d="M3672 4665 c0 -16 2 -22 5 -12 2 9 2 23 0 30 -3 6 -5 -1 -5 -18z"/>
<path d="M3621 4654 c0 -11 3 -14 6 -6 3 7 2 16 -1 19 -3 4 -6 -2 -5 -13z"/>
<path d="M3206 4633 c-4 -16 -9 -37 -13 -48 -3 -13 -2 -17 5 -10 10 10 26 85
19 85 -3 0 -8 -12 -11 -27z"/>
<path d="M4401 4644 c0 -11 3 -14 6 -6 3 7 2 16 -1 19 -3 4 -6 -2 -5 -13z"/>
<path d="M3231 4634 c0 -11 3 -14 6 -6 3 7 2 16 -1 19 -3 4 -6 -2 -5 -13z"/>
<path d="M3612 4600 c0 -14 2 -19 5 -12 2 6 2 18 0 25 -3 6 -5 1 -5 -13z"/>
<path d="M4412 4595 c0 -16 2 -22 5 -12 2 9 2 23 0 30 -3 6 -5 -1 -5 -18z"/>
<path d="M4560 4611 c0 -6 4 -13 10 -16 6 -3 7 1 4 9 -7 18 -14 21 -14 7z"/>
<path d="M3222 4585 c0 -16 2 -22 5 -12 2 9 2 23 0 30 -3 6 -5 -1 -5 -18z"/>
<path d="M3682 4590 c0 -14 2 -19 5 -12 2 6 2 18 0 25 -3 6 -5 1 -5 -13z"/>
<path d="M3601 4554 c0 -11 3 -14 6 -6 3 7 2 16 -1 19 -3 4 -6 -2 -5 -13z"/>
<path d="M3181 4550 c-1 -8 -4 -26 -7 -40 -5 -19 -4 -22 5 -14 7 6 11 24 8 40
-2 16 -5 22 -6 14z"/>
<path d="M4422 4535 c0 -16 2 -22 5 -12 2 9 2 23 0 30 -3 6 -5 -1 -5 -18z"/>
<path d="M4590 4551 c0 -6 4 -13 10 -16 6 -3 7 1 4 9 -7 18 -14 21 -14 7z"/>
<path d="M3212 4530 c0 -14 2 -19 5 -12 2 6 2 18 0 25 -3 6 -5 1 -5 -13z"/>
<path d="M3684 4445 c0 -49 1 -71 3 -48 2 23 2 64 0 90 -2 26 -3 8 -3 -42z"/>
<path d="M4432 4480 c0 -14 2 -19 5 -12 2 6 2 18 0 25 -3 6 -5 1 -5 -13z"/>
<path d="M3202 4465 c0 -16 2 -22 5 -12 2 9 2 23 0 30 -3 6 -5 -1 -5 -18z"/>
<path d="M3161 4464 c0 -11 3 -14 6 -6 3 7 2 16 -1 19 -3 4 -6 -2 -5 -13z"/>
<path d="M3581 4444 c0 -11 3 -14 6 -6 3 7 2 16 -1 19 -3 4 -6 -2 -5 -13z"/>
<path d="M3152 4410 c0 -14 2 -19 5 -12 2 6 2 18 0 25 -3 6 -5 1 -5 -13z"/>
<path d="M3192 4380 c0 -19 2 -27 5 -17 2 9 2 25 0 35 -3 9 -5 1 -5 -18z"/>
<path d="M3592 4385 c0 -16 2 -22 5 -12 2 9 2 23 0 30 -3 6 -5 -1 -5 -18z"/>
<path d="M4442 4385 c0 -16 2 -22 5 -12 2 9 2 23 0 30 -3 6 -5 -1 -5 -18z"/>
<path d="M4645 4399 c-4 -6 -5 -12 -2 -15 2 -3 7 2 10 11 7 17 1 20 -8 4z"/>
<path d="M4562 4375 c0 -16 2 -22 5 -12 2 9 2 23 0 30 -3 6 -5 -1 -5 -18z"/>
<path d="M3142 4355 c0 -16 2 -22 5 -12 2 9 2 23 0 30 -3 6 -5 -1 -5 -18z"/>
<path d="M4665 4329 c-4 -6 -5 -12 -2 -15 2 -3 7 2 10 11 7 17 1 20 -8 4z"/>
<path d="M5070 4335 c0 -5 5 -17 10 -25 5 -8 10 -10 10 -5 0 6 -5 17 -10 25
-5 8 -10 11 -10 5z"/>
<path d="M3672 4305 c0 -16 2 -22 5 -12 2 9 2 23 0 30 -3 6 -5 -1 -5 -18z"/>
<path d="M4453 4270 c0 -36 2 -50 4 -32 2 17 2 47 0 65 -2 17 -4 3 -4 -33z"/>
<path d="M3131 4304 c0 -11 3 -14 6 -6 3 7 2 16 -1 19 -3 4 -6 -2 -5 -13z"/>
<path d="M3693 4265 c0 -22 2 -30 4 -17 2 12 2 30 0 40 -3 9 -5 -1 -4 -23z"/>
<path d="M5091 4274 c0 -11 3 -14 6 -6 3 7 2 16 -1 19 -3 4 -6 -2 -5 -13z"/>
<path d="M5106 4225 c8 -37 14 -45 14 -19 0 10 -5 26 -10 34 -8 11 -9 7 -4
-15z"/>
<path d="M3122 4220 c0 -14 2 -19 5 -12 2 6 2 18 0 25 -3 6 -5 1 -5 -13z"/>
<path d="M4573 4185 c0 -33 2 -45 4 -27 2 18 2 45 0 60 -2 15 -4 0 -4 -33z"/>
<path d="M4695 4209 c-4 -6 -5 -12 -2 -15 2 -3 7 2 10 11 7 17 1 20 -8 4z"/>
<path d="M3682 4180 c0 -14 2 -19 5 -12 2 6 2 18 0 25 -3 6 -5 1 -5 -13z"/>
<path d="M3133 4150 c0 -25 2 -35 4 -22 2 12 2 32 0 45 -2 12 -4 2 -4 -23z"/>
<path d="M3163 4115 c0 -44 2 -61 4 -37 2 23 2 59 0 80 -2 20 -4 1 -4 -43z"/>
<path d="M3383 4161 c-50 -13 -98 -45 -98 -67 0 -18 7 -19 117 -15 64 2 122 0
129 -4 7 -5 25 -9 41 -10 39 -4 138 -57 138 -75 0 -12 2 -12 9 -2 4 8 11 13
15 13 37 -5 39 21 7 70 -23 34 -40 46 -97 67 -73 27 -198 38 -261 23z"/>
<path d="M4662 4140 c0 -14 2 -19 5 -12 2 6 2 18 0 25 -3 6 -5 1 -5 -13z"/>
<path d="M4698 4125 c-2 -3 -35 -7 -72 -10 -91 -7 -150 -22 -223 -57 -69 -33
-98 -60 -90 -83 8 -19 33 -19 86 0 22 8 41 12 41 9 0 -2 14 3 31 11 16 9 46
18 66 21 19 2 40 7 46 11 6 4 27 9 47 13 29 4 36 10 41 35 l7 30 1 -27 c1 -23
6 -28 39 -33 20 -3 48 -9 62 -12 47 -11 50 -11 50 1 0 39 -109 114 -132 91z"/>
<path d="M3021 4084 c0 -11 3 -14 6 -6 3 7 2 16 -1 19 -3 4 -6 -2 -5 -13z"/>
<path d="M3111 4044 c0 -11 3 -14 6 -6 3 7 2 16 -1 19 -3 4 -6 -2 -5 -13z"/>
<path d="M3171 3964 c0 -11 3 -14 6 -6 3 7 2 16 -1 19 -3 4 -6 -2 -5 -13z"/>
<path d="M3023 3925 c0 -27 2 -38 4 -22 2 15 2 37 0 50 -2 12 -4 0 -4 -28z"/>
<path d="M5033 3925 c0 -27 2 -38 4 -22 2 15 2 37 0 50 -2 12 -4 0 -4 -28z"/>
<path d="M4832 3905 c0 -16 2 -22 5 -12 2 9 2 23 0 30 -3 6 -5 -1 -5 -18z"/>
<path d="M3112 3874 c-1 -18 5 -47 13 -65 l14 -34 0 50 c-1 39 -3 44 -9 25 -6
-23 -8 -21 -12 15 -4 35 -5 36 -6 9z"/>
<path d="M3522 3875 c0 -16 2 -22 5 -12 2 9 2 23 0 30 -3 6 -5 -1 -5 -18z"/>
<path d="M3191 3854 c0 -11 3 -14 6 -6 3 7 2 16 -1 19 -3 4 -6 -2 -5 -13z"/>
<path d="M3032 3840 c0 -14 2 -19 5 -12 2 6 2 18 0 25 -3 6 -5 1 -5 -13z"/>
<path d="M3862 3820 c0 -19 2 -27 5 -17 2 9 2 25 0 35 -3 9 -5 1 -5 -18z"/>
<path d="M4731 3824 c0 -11 3 -14 6 -6 3 7 2 16 -1 19 -3 4 -6 -2 -5 -13z"/>
<path d="M3431 3800 c-155 -52 -263 -216 -234 -354 12 -55 29 -56 37 0 23 174
201 313 363 283 26 -5 78 -28 116 -51 51 -30 71 -38 79 -30 18 18 -15 77 -64
112 -80 59 -197 74 -297 40z"/>
<path d="M4471 3798 c-29 -9 -69 -29 -88 -44 -39 -29 -93 -100 -93 -121 0 -29
31 -25 70 10 85 78 197 106 285 73 63 -25 128 -100 155 -181 29 -88 60 -86 60
4 0 56 -27 123 -67 171 -33 38 -38 40 -44 24 -7 -17 -8 -17 -8 3 -2 59 -165
96 -270 61z"/>
<path d="M5022 3790 c0 -14 2 -19 5 -12 2 6 2 18 0 25 -3 6 -5 1 -5 -13z"/>
<path d="M3211 3778 c0 -7 4 -22 9 -33 8 -18 9 -17 9 7 1 15 -3 30 -9 33 -5 3
-10 0 -9 -7z"/>
<path d="M3871 3759 c0 -13 4 -33 9 -44 7 -14 8 -8 3 20 -7 46 -13 59 -12 24z"/>
<path d="M3122 3750 c0 -14 2 -19 5 -12 2 6 2 18 0 25 -3 6 -5 1 -5 -13z"/>
<path d="M3143 3710 c0 -25 2 -35 4 -22 2 12 2 32 0 45 -2 12 -4 2 -4 -23z"/>
<path d="M4028 3713 c17 -2 47 -2 65 0 17 2 3 4 -33 4 -36 0 -50 -2 -32 -4z"/>
<path d="M4479 3667 c-87 -46 -142 -184 -120 -302 23 -128 90 -205 184 -213
111 -9 198 77 216 215 15 107 -15 208 -81 270 -61 58 -126 68 -199 30z m209
-170 c27 -25 29 -63 3 -77 -38 -20 -71 12 -71 69 0 45 23 48 68 8z"/>
<path d="M3447 3649 c-41 -22 -91 -91 -107 -149 -27 -95 -3 -228 52 -294 32
-39 96 -75 133 -76 47 0 98 23 136 62 121 125 91 389 -53 464 -39 20 -116 17
-161 -7z m11 -160 c4 -43 -28 -89 -63 -89 -29 0 -37 19 -25 61 22 74 82 94 88
28z"/>
<path d="M3890 3213 c-117 -5 -117 -5 -130 -70 -26 -124 5 -276 68 -336 72
-69 218 -92 312 -50 56 25 125 99 139 149 27 96 20 286 -11 305 -12 8 -206 9
-378 2z m270 -37 c-44 -54 -261 -51 -295 4 -4 7 48 10 151 10 135 0 155 -2
144 -14z"/>
<path d="M4147 6046 c23 -20 54 -62 70 -94 25 -51 28 -67 27 -152 0 -78 -5
-107 -27 -162 -29 -75 -29 -92 1 -25 48 108 54 240 15 328 -22 50 -74 114
-107 131 -11 6 -2 -6 21 -26z"/>
<path d="M5685 4065 c47 -142 61 -315 35 -426 -39 -164 -145 -295 -264 -323
-15 -4 -26 -9 -24 -11 3 -3 27 2 54 10 97 29 194 143 237 280 30 98 30 267 -2
379 -12 44 -26 86 -32 95 -9 13 -9 12 -4 -4z"/>
<path d="M5252 2408 c-6 -6 -12 -8 -12 -3 0 5 -20 -11 -45 -35 -24 -24 -41
-48 -38 -53 3 -6 1 -7 -4 -4 -6 4 -26 0 -45 -8 -19 -7 -46 -12 -59 -9 -18 4
-16 1 11 -15 75 -43 145 -18 186 66 27 53 30 85 6 61z m-62 -102 c-27 -26 -70
-43 -70 -29 0 5 16 17 35 26 19 9 35 20 34 24 -3 20 2 26 13 15 10 -10 7 -17
-12 -36z"/>
</g>
</svg>
